# xmcd CD database file
#
# Track frame offsets:
#	150
#	29052
#	57952
#	83172
#
# Disc length: 1237 seconds
#
# Revision: 0
# Processed by: cddbd v1.5.1PL0 Copyright (c) Steve Scherf et al.
# Submitted via: CDex 1.51
#
DISCID=2e04d304
DTITLE=Corey Hart - Spot You In A Coalmine (For Japan Only)
DYEAR=1989
DGENRE=Rock
TTITLE0=Spot You In A Coalmine(Extended Mix)
TTITLE1=In Your Soul(Soul III Version)
TTITLE2=Lone Wolf(Extended Mix)
TTITLE3=21
EXTD=YEAR: 1989
EXTT0=
EXTT1=
EXTT2=
EXTT3=
PLAYORDER=
